<svg width="32" height="32" viewBox="0 0 32 32" fill="none" xmlns="http://www.w3.org/2000/svg">
<path fill-rule="evenodd" clip-rule="evenodd" d="M21.25 17.3929C21.25 18.1129 21.6849 18.7314 22.3063 19C22.519 19.0919 22.7536 19.1429 23 19.1429V20H9V19.1429C9.24643 19.1429 9.48097 19.0919 9.69365 19C10.3151 18.7314 10.75 18.1129 10.75 17.3929V14C10.75 10.6863 13.1005 8 16 8C18.8995 8 21.25 10.6863 21.25 14V17.3929ZM20.25 14V17.3929C20.25 17.9928 20.4421 18.5479 20.7682 19H11.2318C11.5579 18.5479 11.75 17.9928 11.75 17.3929V14C11.75 11.109 13.774 9 16 9C18.226 9 20.25 11.109 20.25 14Z" fill="#333333"/>
<path d="M16 23C14.8954 23 14 22.1046 14 21H13C13 22.6569 14.3431 24 16 24C17.6569 24 19 22.6569 19 21H18C18 22.1046 17.1046 23 16 23Z" fill="#333333"/>
</svg>
