<svg width="10" height="10" viewBox="0 0 10 10" fill="none" xmlns="http://www.w3.org/2000/svg">
<path d="M8.45833 5.59574C8.35335 5.56302 8.23969 5.57312 8.14212 5.62386C8.04456 5.67459 7.97101 5.76183 7.9375 5.86657C7.74065 6.46843 7.3569 6.99179 6.84207 7.36049C6.32724 7.72919 5.70819 7.924 5.075 7.91657C4.29181 7.92547 3.53706 7.62343 2.97624 7.07667C2.41542 6.52991 2.09431 5.78306 2.08333 4.9999C2.09431 4.21674 2.41542 3.4699 2.97624 2.92314C3.53706 2.37638 4.29181 2.07433 5.075 2.08324C5.78232 2.08153 6.46788 2.32774 7.0125 2.77907L6.10833 2.62907C6.05414 2.62015 5.99873 2.62204 5.94527 2.63461C5.89181 2.64719 5.84137 2.67021 5.79684 2.70235C5.75231 2.73449 5.71457 2.77511 5.68579 2.82189C5.65702 2.86866 5.63777 2.92066 5.62917 2.9749C5.62025 3.02909 5.62213 3.08451 5.63471 3.13797C5.64729 3.19142 5.6703 3.24187 5.70244 3.2864C5.73458 3.33093 5.77521 3.36867 5.82198 3.39744C5.86876 3.42622 5.92076 3.44546 5.975 3.45407L7.74167 3.74574H7.8125C7.86081 3.74568 7.90875 3.73722 7.95417 3.72074C7.96943 3.71494 7.98354 3.70648 7.99583 3.69574C8.02571 3.68463 8.05379 3.66918 8.07917 3.6499L8.11667 3.60407C8.11667 3.58324 8.15417 3.56657 8.17083 3.54157C8.1875 3.51657 8.17083 3.4999 8.19167 3.48324C8.20318 3.45897 8.21293 3.4339 8.22083 3.40824L8.53333 1.74157C8.54373 1.68685 8.54325 1.63062 8.53191 1.57609C8.52058 1.52156 8.49861 1.4698 8.46727 1.42375C8.43593 1.37771 8.39583 1.33829 8.34926 1.30775C8.30268 1.2772 8.25055 1.25613 8.19583 1.24574C8.14112 1.23534 8.08489 1.23582 8.03036 1.24716C7.97582 1.25849 7.92406 1.28046 7.87802 1.31179C7.78503 1.37509 7.721 1.47273 7.7 1.58324L7.5875 2.1874C6.89 1.58292 5.99799 1.25008 5.075 1.2499C4.07081 1.24101 3.1041 1.63086 2.387 2.33389C1.66991 3.03693 1.261 3.99573 1.25 4.9999C1.261 6.00408 1.66991 6.96287 2.387 7.66591C3.1041 8.36895 4.07081 8.75879 5.075 8.7499C5.88881 8.76241 6.68513 8.51329 7.34672 8.03922C8.00831 7.56516 8.50021 6.8912 8.75 6.11657C8.7658 6.06322 8.77077 6.00725 8.76459 5.95196C8.75841 5.89666 8.74123 5.84317 8.71404 5.79462C8.68686 5.74608 8.65023 5.70347 8.60631 5.66931C8.56239 5.63515 8.51208 5.61014 8.45833 5.59574Z" fill="#F48245"/>
</svg>
